<svg width="70" height="62" viewBox="0 0 70 62" fill="none" xmlns="http://www.w3.org/2000/svg">
<path d="M23 35L47 35C50.866 35 54 38.134 54 42V48L16 48V42C16 38.134 19.134 35 23 35Z" fill="url(#paint0_linear_5311_840)" stroke="white" stroke-width="2"/>
<rect x="50" y="56" width="29" height="8" transform="rotate(-180 50 56)" fill="url(#paint1_linear_5311_840)" stroke="white" stroke-width="2"/>
<path d="M23.6738 56L22.4531 60.2744C22.3305 60.7037 21.9377 61 21.4912 61H18C17.4477 61 17 60.5523 17 60V56H23.6738Z" fill="url(#paint2_linear_5311_840)" stroke="white" stroke-width="2"/>
<path d="M46.3262 56L47.5469 60.2744C47.6695 60.7037 48.0623 61 48.5088 61H52C52.5523 61 53 60.5523 53 60V56H46.3262Z" fill="url(#paint3_linear_5311_840)" stroke="white" stroke-width="2"/>
<path d="M55 56L48 56L48 43C48 42.4477 48.4477 42 49 42L56 42C56.5523 42 57 42.4477 57 43L57 54L56.9893 54.2041C56.887 55.2128 56.0357 56 55 56Z" fill="#FF7A0C" stroke="white" stroke-width="2"/>
<path d="M55 56L48 56L48 43C48 42.4477 48.4477 42 49 42L56 42C56.5523 42 57 42.4477 57 43L57 54L56.9893 54.2041C56.887 55.2128 56.0357 56 55 56Z" fill="url(#paint4_linear_5311_840)" stroke="white" stroke-width="2"/>
<path d="M15 56L22 56L22 43C22 42.4477 21.5523 42 21 42L14 42C13.4477 42 13 42.4477 13 43L13 54L13.0107 54.2041C13.113 55.2128 13.9643 56 15 56Z" fill="#FF7A0C" stroke="white" stroke-width="2"/>
<path d="M15 56L22 56L22 43C22 42.4477 21.5523 42 21 42L14 42C13.4477 42 13 42.4477 13 43L13 54L13.0107 54.2041C13.113 55.2128 13.9643 56 15 56Z" fill="url(#paint5_linear_5311_840)" stroke="white" stroke-width="2"/>
<path d="M35 27V29" stroke="white" stroke-width="2" stroke-linecap="round"/>
<path d="M30 21L31.1819 24.3093C31.7582 25.9229 33.2866 27 35 27C36.7134 27 38.2418 25.9229 38.8181 24.3093L40 21" stroke="white" stroke-width="2"/>
<rect x="6" y="16" width="58" height="4" fill="#FF7D0C" stroke="white" stroke-width="2"/>
<path d="M4 1H66C67.6569 1 69 2.34315 69 4V7H1V4C1 2.34315 2.34315 1 4 1Z" fill="#FF7D0C" stroke="white" stroke-width="2"/>
<path d="M6 7V28C6 28.5523 5.55229 29 5 29H2C1.44772 29 1 28.5523 1 28V7H6Z" fill="#FF7D0C" stroke="white" stroke-width="2"/>
<path d="M69 7V28C69 28.5523 68.5523 29 68 29H65C64.4477 29 64 28.5523 64 28V7H69Z" fill="#FF7D0C" stroke="white" stroke-width="2"/>
<path d="M31 14H39C40.1046 14 41 14.8954 41 16V21C41 21.5523 40.5523 22 40 22H30C29.4477 22 29 21.5523 29 21V16C29 14.8954 29.8954 14 31 14Z" fill="#FF7B0C" stroke="white" stroke-width="2"/>
<path d="M31 14H39C40.1046 14 41 14.8954 41 16V21C41 21.5523 40.5523 22 40 22H30C29.4477 22 29 21.5523 29 21V16C29 14.8954 29.8954 14 31 14Z" fill="url(#paint6_linear_5311_840)" stroke="white" stroke-width="2"/>
<defs>
<linearGradient id="paint0_linear_5311_840" x1="33.5" y1="67" x2="49" y2="31.5" gradientUnits="userSpaceOnUse">
<stop stop-color="white"/>
<stop offset="1" stop-color="white" stop-opacity="0"/>
</linearGradient>
<linearGradient id="paint1_linear_5311_840" x1="83" y1="50" x2="66.5" y2="67" gradientUnits="userSpaceOnUse">
<stop stop-color="white"/>
<stop offset="1" stop-color="white" stop-opacity="0"/>
</linearGradient>
<linearGradient id="paint2_linear_5311_840" x1="20.5" y1="55" x2="20.5" y2="59.5" gradientUnits="userSpaceOnUse">
<stop stop-color="white"/>
<stop offset="1" stop-color="white" stop-opacity="0"/>
</linearGradient>
<linearGradient id="paint3_linear_5311_840" x1="49.5" y1="55" x2="50.5" y2="59" gradientUnits="userSpaceOnUse">
<stop stop-color="white"/>
<stop offset="1" stop-color="white" stop-opacity="0"/>
</linearGradient>
<linearGradient id="paint4_linear_5311_840" x1="65.5" y1="81.5" x2="52.5" y2="41" gradientUnits="userSpaceOnUse">
<stop stop-color="white"/>
<stop offset="1" stop-color="white" stop-opacity="0"/>
</linearGradient>
<linearGradient id="paint5_linear_5311_840" x1="29.5" y1="76.5" x2="17.5" y2="41" gradientUnits="userSpaceOnUse">
<stop stop-color="white"/>
<stop offset="1" stop-color="white" stop-opacity="0"/>
</linearGradient>
<linearGradient id="paint6_linear_5311_840" x1="18.5" y1="30" x2="42" y2="11.5" gradientUnits="userSpaceOnUse">
<stop stop-color="white"/>
<stop offset="1" stop-color="white" stop-opacity="0"/>
</linearGradient>
</defs>
</svg>
